<?xml version="1.0" encoding="UTF-8"?>
<svg version="1.1" xmlns="http://www.w3.org/2000/svg" width="501" height="626">
<path d="M0 0 C165.33 0 330.66 0 501 0 C501 206.58 501 413.16 501 626 C335.67 626 170.34 626 0 626 C0 419.42 0 212.84 0 0 Z " fill="#FEFEFE" transform="translate(0,0)"/>
<path d="M0 0 C0.92993774 0.00182281 1.85987549 0.00364563 2.81799316 0.00552368 C84.90914327 0.27455719 84.90914327 0.27455719 109.359375 24.4609375 C113.86762405 29.45607745 115.30816852 32.01712946 115.38037109 38.83837891 C115.39263733 39.84366638 115.39263733 39.84366638 115.40515137 40.8692627 C115.43000837 43.09252025 115.44652668 45.31571369 115.4609375 47.5390625 C115.46626118 48.29952251 115.47158485 49.05998253 115.47706985 49.84348679 C115.50380946 53.87269838 115.52317716 57.90187899 115.53759766 61.93115234 C115.55090997 65.25825663 115.57870992 68.58474366 115.61962891 71.91162109 C115.66910129 75.93404246 115.6937371 79.95590603 115.70082474 83.97861862 C115.70751516 85.50716614 115.72267955 87.0357023 115.74671555 88.56407547 C115.96026083 102.97089628 115.96026083 102.97089628 111.53369141 108.94805908 C110.1875 110.3125 110.1875 110.3125 107.4140625 112.1328125 C104.23069434 115.24916238 104.60926434 117.86814299 104.5390625 122.19140625 C104.54679688 123.18011719 104.55453125 124.16882813 104.5625 125.1875 C104.5625 138.60647655 104.5625 138.60647655 99.35546875 144.32421875 C98.70191406 144.87722656 98.04835938 145.43023437 97.375 146 C96.72917969 146.56074219 96.08335937 147.12148437 95.41796875 147.69921875 C92.81093099 149.58486953 90.09262018 150.94075281 87.1875 152.3125 C86.62542191 166.64549125 87.20871606 176.67157668 96.8671875 188.05859375 C103.30185136 194.30910056 111.75959726 196.96796119 120.015625 200.01953125 C124.67753435 201.91989085 129.18682802 204.23297597 133.1875 207.3125 C133.1875 207.9725 133.1875 208.6325 133.1875 209.3125 C134.1775 209.6425 135.1675 209.9725 136.1875 210.3125 C140.10815838 215.80127872 139.61283833 221.60327109 139.58190918 228.06564331 C139.58800028 229.25752262 139.59409139 230.44940193 139.60036707 231.6773988 C139.61412261 234.97782637 139.61445247 238.27775568 139.6089921 241.57817435 C139.6063197 245.14065711 139.62085762 248.70307642 139.63308716 252.26553345 C139.6541345 259.2418091 139.65868241 266.21800163 139.65689927 273.19430529 C139.6555913 278.86534755 139.6593976 284.53636389 139.66682434 290.20740128 C139.66892355 291.84136458 139.67102115 293.47532789 139.67311716 295.1092912 C139.67416069 295.92257894 139.67520422 296.73586668 139.67627937 297.57379951 C139.69517892 312.95292765 139.69413241 328.33200809 139.68731004 343.71114303 C139.68173474 357.77659354 139.70255991 371.84186189 139.73567051 385.90726982 C139.76941355 400.35359263 139.78457508 414.79982819 139.77995348 429.24619114 C139.77770941 437.35514199 139.78294273 445.46392448 139.80784607 453.57284164 C139.82886716 460.47636014 139.83244331 467.37961797 139.81354648 474.2831472 C139.80439343 477.8042679 139.80323148 481.32490268 139.82390213 484.84598541 C139.84607945 488.66602102 139.82938313 492.48533151 139.80895996 496.3053894 C139.82147781 497.41415086 139.83399566 498.52291231 139.84689283 499.66527259 C139.76861556 506.49074663 138.63867663 511.03546691 134.1875 516.3125 C129.0710998 520.98074836 122.54064603 523.72539414 116.1875 526.3125 C115.49914062 526.62832031 114.81078125 526.94414063 114.1015625 527.26953125 C105.20187351 531.1885171 95.64064687 533.19502256 86.1875 535.3125 C85.3629834 535.49844727 84.5384668 535.68439453 83.68896484 535.87597656 C41.34493741 545.14372596 -4.90140777 544.84049019 -47.8125 540.3125 C-49.35284912 540.15974609 -49.35284912 540.15974609 -50.92431641 540.00390625 C-114.60496421 533.55926159 -114.60496421 533.55926159 -132.3124975 512.75737679 C-135.12720366 508.16964459 -134.77076074 503.4074404 -134.69465637 498.16026306 C-134.70487074 496.94963512 -134.71508511 495.73900719 -134.725609 494.49169356 C-134.74670384 491.14742272 -134.73657464 487.80593777 -134.71291363 484.4618634 C-134.69497304 480.84962167 -134.71745238 477.23759529 -134.73469543 473.62538147 C-134.76193659 466.55597281 -134.75154984 459.48710051 -134.72778193 452.41769832 C-134.70922421 446.67181788 -134.70473776 440.92608417 -134.71027184 435.18017769 C-134.71105574 434.36177574 -134.71183965 433.54337379 -134.71264732 432.70017179 C-134.71431313 431.03751214 -134.71601691 429.37485253 -134.71775826 427.71219296 C-134.73253879 412.12982395 -134.70521985 396.5477492 -134.66293981 380.96544457 C-134.62757344 367.5988421 -134.62598842 354.23259094 -134.6496582 340.8659668 C-134.677129 325.33708652 -134.68536757 309.80840497 -134.66172332 294.27951151 C-134.65924187 292.62334322 -134.6567784 290.96717489 -134.65433311 289.31100655 C-134.65311247 288.49617479 -134.65189183 287.68134304 -134.6506342 286.84181942 C-134.64330516 281.10320157 -134.64951971 275.36468975 -134.66083717 269.62608147 C-134.67418477 262.632106 -134.66589625 255.63854887 -134.63010065 248.64464586 C-134.61235796 245.07701165 -134.60413059 241.51004345 -134.62194061 237.94239426 C-134.6409153 234.07378173 -134.61333666 230.20629645 -134.58113098 226.3377533 C-134.59383319 225.21187945 -134.6065354 224.0860056 -134.61962253 222.92601436 C-134.5227256 216.72910853 -133.85088032 213.10054505 -129.40277213 208.63804346 C-126.86375014 206.52168618 -124.26469939 204.85311945 -121.375 203.25 C-120.7766333 202.91621338 -120.1782666 202.58242676 -119.56176758 202.23852539 C-115.17068447 199.8592863 -110.66912782 198.00490733 -106 196.25 C-95.225506 192.14798638 -88.90921447 186.70645541 -83.8125 176.3125 C-83.44253906 175.58933594 -83.07257813 174.86617187 -82.69140625 174.12109375 C-81.38853086 169.95768307 -81.34283213 165.83959146 -81.1875 161.5 C-81.12949219 160.17452148 -81.12949219 160.17452148 -81.0703125 158.82226562 C-80.97649216 156.65267028 -80.89342674 154.48261453 -80.8125 152.3125 C-81.70582031 152.05082031 -82.59914062 151.78914062 -83.51953125 151.51953125 C-86.7235872 150.34509081 -88.83652952 149.09637904 -91.5 147 C-92.24636719 146.42636719 -92.99273437 145.85273438 -93.76171875 145.26171875 C-96.84501464 142.33111941 -98.6437043 139.73123085 -99.15307617 135.44995117 C-99.1295105 133.91818237 -99.1295105 133.91818237 -99.10546875 132.35546875 C-99.0909668 130.68774414 -99.0909668 130.68774414 -99.07617188 128.98632812 C-99.05103516 127.83583984 -99.02589844 126.68535156 -99 125.5 C-98.97969727 123.74526367 -98.97969727 123.74526367 -98.95898438 121.95507812 C-98.92370278 119.073748 -98.8744028 116.19336096 -98.8125 113.3125 C-99.41835937 113.20550781 -100.02421875 113.09851563 -100.6484375 112.98828125 C-104.64971983 111.73878334 -106.76519873 107.95735427 -108.94277954 104.537323 C-110.14082076 101.47262602 -110.08242263 98.8159032 -110.10302734 95.52783203 C-110.11310318 94.5172876 -110.11310318 94.5172876 -110.12338257 93.48632812 C-110.14234473 91.26424741 -110.14628583 89.04246904 -110.1484375 86.8203125 C-110.1548668 85.27098467 -110.16159526 83.72165806 -110.16860962 82.17233276 C-110.18057799 78.92589504 -110.18429092 75.67956369 -110.18310547 72.43310547 C-110.18290233 68.28133447 -110.21020057 64.13024837 -110.24464989 59.9786396 C-110.26693209 56.77864474 -110.27094261 53.57881434 -110.26988602 50.37874985 C-110.27224014 48.84858719 -110.28105312 47.31841988 -110.29655075 45.78833389 C-110.31623846 43.64372618 -110.31036362 41.50059054 -110.29833984 39.35595703 C-110.30118988 38.13780304 -110.30403992 36.91964905 -110.30697632 35.6645813 C-109.36674269 29.29068745 -105.08510661 25.07648975 -100.3046875 21.1015625 C-73.03398687 1.52478995 -32.38102397 -0.13280455 0 0 Z " fill="#97D3EA" transform="translate(247.8125,41.6875)"/>
<path d="M0 0 C0.79277344 0.20238281 1.58554687 0.40476562 2.40234375 0.61328125 C11.78932005 3.06687539 19.08732233 6.08732233 26 13 C26.25415033 14.93541938 26.25415033 14.93541938 26.26006222 17.35511494 C26.26712781 18.27562997 26.2741934 19.19614501 26.2814731 20.14455444 C26.27905802 21.1625285 26.27664293 22.18050257 26.27415466 23.22932434 C26.27939134 24.30556318 26.28462802 25.38180203 26.29002339 26.49065417 C26.30510552 30.12116636 26.30573034 33.75153863 26.30639648 37.38208008 C26.31401247 39.97521709 26.32243899 42.56835182 26.33161926 45.16148376 C26.3544976 52.22345864 26.362393 59.28540353 26.36744571 66.34741044 C26.37069964 70.75531542 26.37722029 75.16321165 26.3844471 79.57111168 C26.40401722 91.77046459 26.42041885 103.96980934 26.42332363 116.16917896 C26.4235112 116.95030028 26.42369877 117.7314216 26.42389202 118.53621326 C26.42425828 120.11980895 26.42462198 121.70340464 26.42498314 123.28700034 C26.42516595 124.07312274 26.42534876 124.85924515 26.42553711 125.66918945 C26.42580793 126.84980907 26.42580793 126.84980907 26.42608423 128.05427959 C26.42962625 140.80930709 26.45664847 153.5641658 26.494035 166.31913475 C26.53209427 179.40816492 26.55148094 192.49711128 26.55178314 205.58619803 C26.55236828 212.9378019 26.56089592 220.28920447 26.58978081 227.64075661 C26.61681936 234.55431775 26.61821977 241.46747357 26.60212517 248.38106728 C26.60030304 250.92198046 26.60706962 253.46291611 26.62294388 256.00378036 C26.64326089 259.46624062 26.63293566 262.9272843 26.61473083 266.38972473 C26.63453079 267.90664759 26.63453079 267.90664759 26.65473074 269.45421535 C26.59813885 274.14972944 26.56499041 276.27715021 23.59805393 280.07305431 C16.34467156 285.45280171 8.48685927 287.92379584 -0.19140625 290.203125 C-2.8826911 290.72027486 -2.8826911 290.72027486 -4 292 C-33.27699783 298.33534097 -62.79336621 299.16500418 -92.625 299.1875 C-93.83469452 299.18867828 -95.04438904 299.18985657 -96.29074097 299.19107056 C-99.83190855 299.19068027 -103.37292167 299.18128797 -106.9140625 299.16796875 C-108.46633797 299.1661409 -108.46633797 299.1661409 -110.04997253 299.16427612 C-119.74515712 299.10505626 -129.27994052 298.51158208 -139 298 C-139 212.2 -139 126.4 -139 38 C-143.29 37.67 -147.58 37.34 -152 37 C-164.16801485 35.85020118 -176.05523767 34.3111968 -187.875 31.125 C-188.74697021 30.89272705 -189.61894043 30.6604541 -190.51733398 30.42114258 C-198.11645981 28.24735242 -205.95315665 25.22849838 -212 20 C-213.25 16.75 -213.25 16.75 -213 13 C-205.4476789 2.11168431 -188.16933358 -0.61477923 -176 -3 C-165.79079101 -4.78645932 -155.48830344 -6.00453552 -145.1875 -7.125 C-144.1514563 -7.23835693 -144.1514563 -7.23835693 -143.09448242 -7.35400391 C-96.39035955 -12.13282974 -45.68015131 -11.95162867 0 0 Z " fill="#47C0EF" transform="translate(344,259)"/>
<path d="M0 0 C0.92993774 0.00182281 1.85987549 0.00364563 2.81799316 0.00552368 C84.90914327 0.27455719 84.90914327 0.27455719 109.359375 24.4609375 C113.86762405 29.45607745 115.30816852 32.01712946 115.38037109 38.83837891 C115.39263733 39.84366638 115.39263733 39.84366638 115.40515137 40.8692627 C115.43000837 43.09252025 115.44652668 45.31571369 115.4609375 47.5390625 C115.46626118 48.29952251 115.47158485 49.05998253 115.47706985 49.84348679 C115.50380946 53.87269838 115.52317716 57.90187899 115.53759766 61.93115234 C115.55090997 65.25825663 115.57870992 68.58474366 115.61962891 71.91162109 C115.66910129 75.93404246 115.6937371 79.95590603 115.70082474 83.97861862 C115.70751516 85.50716614 115.72267955 87.0357023 115.74671555 88.56407547 C115.96026083 102.97089628 115.96026083 102.97089628 111.53369141 108.94805908 C110.1875 110.3125 110.1875 110.3125 107.4140625 112.1328125 C104.23069434 115.24916238 104.60926434 117.86814299 104.5390625 122.19140625 C104.54679688 123.18011719 104.55453125 124.16882813 104.5625 125.1875 C104.5625 138.14594072 104.5625 138.14594072 99.671875 144.18359375 C86.8243476 155.78687863 69.12562115 159.59543247 52.5625 162.4375 C51.64025635 162.59629639 50.7180127 162.75509277 49.76782227 162.91870117 C33.22598155 165.5942767 16.74202143 166.69540362 0 166.625 C-0.88648224 166.62350952 -1.77296448 166.62201904 -2.68630981 166.6204834 C-17.23973449 166.57672598 -31.45310216 165.86800917 -45.8125 163.3125 C-46.63637207 163.16796387 -47.46024414 163.02342773 -48.30908203 162.87451172 C-63.96672293 160.01413346 -85.20306284 155.57093817 -96 143 C-98.60701958 139.13441925 -98.93359226 137.28876824 -98.91015625 132.6484375 C-98.90693359 131.52695313 -98.90371094 130.40546875 -98.90039062 129.25 C-98.89201172 128.074375 -98.88363281 126.89875 -98.875 125.6875 C-98.87048828 124.50414062 -98.86597656 123.32078125 -98.86132812 122.1015625 C-98.84951467 119.17182493 -98.83304258 116.24218728 -98.8125 113.3125 C-99.41835937 113.20550781 -100.02421875 113.09851563 -100.6484375 112.98828125 C-104.64971983 111.73878334 -106.76519873 107.95735427 -108.94277954 104.537323 C-110.14082076 101.47262602 -110.08242263 98.8159032 -110.10302734 95.52783203 C-110.10974457 94.85413574 -110.11646179 94.18043945 -110.12338257 93.48632812 C-110.14234473 91.26424741 -110.14628583 89.04246904 -110.1484375 86.8203125 C-110.1548668 85.27098467 -110.16159526 83.72165806 -110.16860962 82.17233276 C-110.18057799 78.92589504 -110.18429092 75.67956369 -110.18310547 72.43310547 C-110.18290233 68.28133447 -110.21020057 64.13024837 -110.24464989 59.9786396 C-110.26693209 56.77864474 -110.27094261 53.57881434 -110.26988602 50.37874985 C-110.27224014 48.84858719 -110.28105312 47.31841988 -110.29655075 45.78833389 C-110.31623846 43.64372618 -110.31036362 41.50059054 -110.29833984 39.35595703 C-110.30118988 38.13780304 -110.30403992 36.91964905 -110.30697632 35.6645813 C-109.36674269 29.29068745 -105.08510661 25.07648975 -100.3046875 21.1015625 C-73.03398687 1.52478995 -32.38102397 -0.13280455 0 0 Z " fill="#4E3E62" transform="translate(247.8125,41.6875)"/>
<path d="M0 0 C0.77656448 0.7945459 1.55312897 1.5890918 2.35322571 2.40771484 C18.88703813 18.60114572 55.91240238 18.55573005 74 21 C74 106.47 74 191.94 74 280 C53.0479117 278.83599509 53.0479117 278.83599509 46.375 277.6875 C45.59777588 277.55923828 44.82055176 277.43097656 44.01977539 277.29882812 C36.23165933 275.96077826 28.61783309 274.08372622 21 272 C20.03191406 271.75378906 19.06382812 271.50757813 18.06640625 271.25390625 C10.82693554 269.30354656 4.18469678 266.49058113 0 260 C-0.37259549 257.83607841 -0.37259549 257.83607841 -0.36914349 255.44729233 C-0.37511663 254.53364528 -0.38108978 253.61999824 -0.38724393 252.67866492 C-0.3785054 251.67866973 -0.36976688 250.67867454 -0.36076355 249.64837646 C-0.36332682 248.58323515 -0.3658901 247.51809384 -0.36853105 246.42067552 C-0.37348534 242.83986826 -0.35694845 239.25947957 -0.34057617 235.67871094 C-0.33973026 233.11657725 -0.34020434 230.55444283 -0.34190369 227.99230957 C-0.34258757 222.47019851 -0.33406044 216.94822302 -0.31719017 211.42613983 C-0.29281452 203.44215437 -0.28499638 195.45822034 -0.2812262 187.47420171 C-0.27465945 174.52085794 -0.25469226 161.56757082 -0.22631836 148.61425781 C-0.19878355 136.03092736 -0.17754714 123.4476123 -0.16479492 110.86425781 C-0.16400675 110.08868986 -0.16321858 109.3131219 -0.16240653 108.51405188 C-0.15849143 104.62327599 -0.1547003 100.73249999 -0.15097082 96.84172392 C-0.11986797 64.5611081 -0.06702612 32.28056191 0 0 Z " fill="#79CEF3" transform="translate(131,276)"/>
<path d="M0 0 C0.94991821 -0.00067474 1.89983643 -0.00134949 2.87854004 -0.00204468 C85.2862636 0.09050357 85.2862636 0.09050357 109.859375 24.3984375 C114.42728749 29.45968453 115.81342402 31.98439617 115.80102539 38.90283203 C115.80117142 39.58587402 115.80131744 40.26891602 115.8014679 40.97265625 C115.80077023 43.2344071 115.79298465 45.496076 115.78515625 47.7578125 C115.78329155 49.32437088 115.78186789 50.89092984 115.78086853 52.45748901 C115.77704743 56.58389898 115.7672206 60.71027384 115.75616455 64.83666992 C115.7459417 69.04605637 115.74136903 73.25544847 115.73632812 77.46484375 C115.72559798 85.72657862 115.70852642 93.98828495 115.6875 102.25 C115.3575 102.25 115.0275 102.25 114.6875 102.25 C114.3575 90.37 114.0275 78.49 113.6875 66.25 C108.7375 68.89 103.7875 71.53 98.6875 74.25 C95.30451611 75.74775278 92.01686907 77.15654855 88.5625 78.4375 C87.67836426 78.76717773 86.79422852 79.09685547 85.88330078 79.43652344 C77.22220375 82.56733599 68.4858986 84.90780609 59.45605469 86.69873047 C57.6300607 87.06231904 55.80752578 87.44379816 53.98925781 87.84423828 C20.87708221 95.00157139 -18.26857791 94.57198082 -51.3125 87.25 C-52.08996582 87.07919922 -52.86743164 86.90839844 -53.66845703 86.73242188 C-57.94700715 85.75457712 -62.12403793 84.56696403 -66.3125 83.25 C-67.40949219 82.93160156 -68.50648438 82.61320312 -69.63671875 82.28515625 C-83.02875312 78.33886447 -95.15582319 73.02612829 -107.3125 66.25 C-107.3125 63.94 -107.3125 61.63 -107.3125 59.25 C-106.9825 59.91 -106.6525 60.57 -106.3125 61.25 C-104.53695679 62.02043342 -104.53695679 62.02043342 -102.375 62.625 C-98.0599575 63.98115621 -93.90011132 65.57980094 -89.7109375 67.28125 C-87.00224444 68.37531495 -84.27946177 69.41831997 -81.53686523 70.42407227 C-79.99650499 70.99602251 -78.46161232 71.58283467 -76.93139648 72.18139648 C-70.14493307 74.77456714 -63.44954834 76.49378138 -56.3125 77.8125 C-55.18440918 78.02156982 -54.05631836 78.23063965 -52.89404297 78.44604492 C-19.07004505 84.50795345 14.67708374 85.1431191 48.6875 80.25 C49.46351563 80.14316895 50.23953125 80.03633789 51.0390625 79.92626953 C64.49225248 78.00843416 78.77826867 74.39008915 91.32348633 69.14868164 C93.6875 68.25 93.6875 68.25 96.6875 68.25 C96.6875 66.93 96.6875 65.61 96.6875 64.25 C95.03917306 64.65669001 93.39396988 65.07604069 91.75 65.5 C90.83347656 65.73203125 89.91695312 65.9640625 88.97265625 66.203125 C86.31894633 67.0487781 84.0053876 67.99552958 81.49609375 69.16796875 C57.2249586 80.18210192 29.12052035 80.51172567 3 80.625 C1.96408722 80.6330365 0.92817444 80.641073 -0.13912964 80.64935303 C-14.03806044 80.73101682 -27.42983478 79.77535324 -41.15724182 77.58525085 C-43.86868604 77.16348515 -46.58855099 76.82994679 -49.3125 76.5 C-62.47291024 74.20876311 -75.35727019 69.04888976 -87.875 64.5 C-88.65367432 64.21874268 -89.43234863 63.93748535 -90.23461914 63.64770508 C-94.20307927 62.17385613 -97.75970301 60.59094444 -101.3125 58.25 C-102.37855469 57.77046875 -103.44460937 57.2909375 -104.54296875 56.796875 C-108.30353049 53.33864333 -108.26132223 50.72817861 -108.53710938 45.7578125 C-108.56611328 44.68273437 -108.59511719 43.60765625 -108.625 42.5 C-108.70427734 41.44039062 -108.78355469 40.38078125 -108.86523438 39.2890625 C-109.086493 33.62765143 -108.80602423 30.07277046 -105.04296875 25.6796875 C-86.56457452 7.34757333 -55.79102156 4.26406598 -31.3125 1.25 C-30.47307861 1.14397461 -29.63365723 1.03794922 -28.76879883 0.92871094 C-19.22038112 -0.11222236 -9.59320441 0.00612633 0 0 Z " fill="#705E90" transform="translate(247.3125,41.75)"/>
<path d="M0 0 C6.77783203 0.80517578 6.77783203 0.80517578 8.77734375 2.55859375 C9.16019531 3.17863281 9.54304688 3.79867187 9.9375 4.4375 C10.33839844 5.05496094 10.73929688 5.67242187 11.15234375 6.30859375 C12 8 12 8 12 10 C12.52980469 10.25136719 13.05960938 10.50273437 13.60546875 10.76171875 C15.41505318 11.69750711 17.1825804 12.7152322 18.92578125 13.76953125 C46.67420096 30.50819735 83.86449677 32.6914989 115 25 C118.03096353 24.08173191 121.01778434 23.06482307 124 22 C124.69601318 21.75805908 125.39202637 21.51611816 126.10913086 21.2668457 C137.32315433 17.3301829 145.50077925 12.21332836 153 3 C153.33 3 153.66 3 154 3 C154.02187378 4.17187866 154.02187378 4.17187866 154.04418945 5.36743164 C154.11900498 8.93293368 154.21555633 12.49753377 154.3125 16.0625 C154.33505859 17.29162109 154.35761719 18.52074219 154.38085938 19.78710938 C154.57420059 26.30798118 154.99895768 31.19905761 158 37 C158 37.99 158 38.98 158 40 C158.66 40 159.32 40 160 40 C160.33 41.32 160.66 42.64 161 44 C161.66 44 162.32 44 163 44 C164.66666667 45.66666667 166.33333333 47.33333333 168 49 C168.99 49.33 169.98 49.66 171 50 C171 50.66 171 51.32 171 52 C171.67804688 52.15855469 172.35609375 52.31710938 173.0546875 52.48046875 C181.07220312 54.49039995 188.11250653 57.40833769 195 62 C195 62.66 195 63.32 195 64 C195.66 64 196.32 64 197 64 C197 64.66 197 65.32 197 66 C197.61875 66.268125 198.2375 66.53625 198.875 66.8125 C201 68 201 68 203 71 C203.25299966 73.10861278 203.25299966 73.10861278 203.25726891 75.59751511 C203.2637178 76.54665496 203.27016669 77.49579481 203.276811 78.47369647 C203.2721652 80.04093333 203.2721652 80.04093333 203.26742554 81.63983154 C203.27195665 82.7481821 203.27648776 83.85653265 203.28115618 84.99846959 C203.29386914 88.73176888 203.29217536 92.46492358 203.29052734 96.19824219 C203.29650835 98.86710152 203.30325584 101.53594932 203.31088257 104.20480347 C203.32751013 110.71390964 203.33299294 117.2229796 203.33410732 123.73210523 C203.33505714 129.02326471 203.33916409 134.31441223 203.34550858 139.60556793 C203.36312716 154.60419765 203.37234669 169.60279871 203.37084763 184.60143885 C203.37076772 185.41036637 203.3706878 186.2192939 203.37060547 187.05273438 C203.37052371 187.86264892 203.37044195 188.67256346 203.37035771 189.50702086 C203.36954503 202.62919924 203.3886765 215.75126277 203.4168822 228.87340793 C203.4456094 242.34442273 203.45942253 255.81538152 203.45769465 269.28642774 C203.4570306 276.85043258 203.46252898 284.4143171 203.48405075 291.97829437 C203.50226062 298.41965406 203.50661173 304.86083889 203.4930319 311.30221316 C203.48650059 314.58822483 203.48856298 317.87383128 203.5037384 321.15982437 C203.51913446 324.7242618 203.50991874 328.28781598 203.49447632 331.85223389 C203.50476344 332.88813557 203.51505057 333.92403726 203.52564943 334.99132991 C203.46612435 341.20149141 202.58841658 344.89141963 199 350 C198.34 350 197.68 350 197 350 C197 350.66 197 351.32 197 352 C196.34 352 195.68 352 195 352 C195 352.66 195 353.32 195 354 C193.52223801 354.75276393 192.0426892 355.50202007 190.5625 356.25 C189.73878906 356.66765625 188.91507813 357.0853125 188.06640625 357.515625 C172.60547396 364.99989796 156.72335391 368.93602664 139.8125 371.8125 C138.61536377 372.01931396 137.41822754 372.22612793 136.18481445 372.43920898 C118.00395179 375.36771143 99.69301305 375.18644201 81.32568359 375.18530273 C77.40320901 375.18748431 73.48101873 375.20569251 69.55859375 375.22460938 C34.6467915 375.30334137 1.75219672 371.60289207 -31 359 C-31 358.34 -31 357.68 -31 357 C-31.7425 356.87625 -32.485 356.7525 -33.25 356.625 C-35.80141485 356.04513299 -37.7267573 355.26291261 -40 354 C-40 353.34 -40 352.68 -40 352 C-40.5775 351.814375 -41.155 351.62875 -41.75 351.4375 C-45.05430764 349.32641456 -46.62198215 346.58183343 -48 343 C-48.55918553 339.27184869 -48.5232719 335.59617896 -48.48101807 331.83204651 C-48.48443577 330.71533929 -48.48785347 329.59863208 -48.49137473 328.44808525 C-48.49795705 324.71065215 -48.47597046 320.97393908 -48.45410156 317.23657227 C-48.45297316 314.55575444 -48.45343071 311.87498055 -48.45587158 309.19416809 C-48.4579662 303.42490261 -48.44544556 297.65581846 -48.42292023 291.88659859 C-48.39037399 283.54536785 -48.37999054 275.20422455 -48.37496826 266.8629372 C-48.36621971 253.32890391 -48.33961611 239.7949672 -48.30175781 226.26098633 C-48.26502631 213.11613446 -48.23672013 199.97130886 -48.21972656 186.82641602 C-48.21867567 186.01579228 -48.21762477 185.20516855 -48.21654204 184.36998046 C-48.21132178 180.30320769 -48.20626697 176.23643473 -48.20129442 172.16966164 C-48.1598461 138.44637106 -48.08940969 104.72319738 -48 71 C-47.34 71 -46.68 71 -46 71 C-45.938125 70.443125 -45.87625 69.88625 -45.8125 69.3125 C-43.54146313 62.84877967 -36.79164498 59.80886085 -31 57 C-25.09144945 54.36469532 -19.15485581 51.99690877 -13 50 C-13 49.34 -13 48.68 -13 48 C-11.64453125 46.7734375 -11.64453125 46.7734375 -9.8125 45.375 C-4.90352344 41.31239871 -1.22361967 36.33395262 0 30 C0.08197613 27.68351312 0.10747793 25.36479111 0.09765625 23.046875 C0.09553383 22.05654266 0.09553383 22.05654266 0.09336853 21.04620361 C0.08779245 18.94742206 0.07524447 16.84874905 0.0625 14.75 C0.0574819 13.32291821 0.05291954 11.89583475 0.04882812 10.46875 C0.03783088 6.97913168 0.0205828 3.48957644 0 0 Z M14.5 55.4375 C13.51064453 55.56527832 12.52128906 55.69305664 11.50195312 55.82470703 C-18.02800611 58.92643935 -18.02800611 58.92643935 -42 74 C-42.74230869 77.52430347 -42.67462813 80.99263068 -42.63491821 84.58335876 C-42.64271817 85.66145532 -42.65051812 86.73955187 -42.65855443 87.85031801 C-42.67852719 91.46948677 -42.66268804 95.08761021 -42.64697266 98.70678711 C-42.65374641 101.29874792 -42.66264817 103.89070391 -42.67352295 106.48265076 C-42.69576092 112.79605532 -42.69095165 119.10916275 -42.67645974 125.42257898 C-42.66516862 130.55401243 -42.66363603 135.68536258 -42.66907883 140.81680489 C-42.66984499 141.54709047 -42.67061116 142.27737605 -42.67140054 143.02979149 C-42.67299917 144.51335746 -42.67462023 145.9969234 -42.6762635 147.48048932 C-42.69052288 161.39363361 -42.67412589 175.30661322 -42.64726166 189.2197305 C-42.62492734 201.15625376 -42.62879887 213.09253387 -42.65185547 225.02905273 C-42.67861828 238.89078273 -42.68914463 252.75236832 -42.67379415 266.61412054 C-42.67220141 268.09254012 -42.67062956 269.57095972 -42.66907883 271.04937935 C-42.66830745 271.77678525 -42.66753607 272.50419115 -42.66674132 273.25363965 C-42.66242539 278.37803582 -42.66970861 283.50234036 -42.68147659 288.62672234 C-42.69697134 295.52559889 -42.68592581 302.42400849 -42.65700531 309.32283974 C-42.65038642 311.8568686 -42.65230574 314.39093607 -42.66331863 316.92494965 C-42.67695287 320.3803769 -42.65988118 323.83432497 -42.63491821 327.28965759 C-42.64607182 328.2959803 -42.65722543 329.302303 -42.66871703 330.33912033 C-42.60536668 334.85025406 -42.49129427 337.99923709 -39.5804348 341.5837183 C-33.989316 346.81916081 -27.3126923 348.74625597 -20 350.5625 C-18.74908569 350.87936768 -18.74908569 350.87936768 -17.47290039 351.20263672 C-5.46238851 354.18896005 6.53387217 356.15902844 18.8125 357.625 C19.83093994 357.7482666 20.84937988 357.8715332 21.89868164 357.99853516 C40.67492511 360.12248478 59.50035827 360.20588454 78.375 360.1875 C79.61700165 360.18656342 80.8590033 360.18562683 82.13864136 360.18466187 C129.82702995 360.56772647 129.82702995 360.56772647 176 350 C177.15886719 349.58878906 178.31773437 349.17757813 179.51171875 348.75390625 C189.58470385 345.23916528 189.58470385 345.23916528 197 338 C197.30606497 335.88881521 197.30606497 335.88881521 197.26844215 333.52742386 C197.28181569 332.14551483 197.28181569 332.14551483 197.29545939 330.73568845 C197.29509066 329.72199146 197.29472194 328.70829447 197.29434204 327.66387939 C197.30169542 326.58819726 197.30904879 325.51251512 197.316625 324.40423656 C197.33874041 320.78151625 197.34639328 317.15891059 197.35400391 313.53613281 C197.36652996 310.94609205 197.37982327 308.35605491 197.39382935 305.76602173 C197.43335159 297.98076676 197.45348912 290.19550661 197.47128493 282.4101764 C197.48005142 278.74407686 197.49078481 275.07798309 197.50126266 271.41188812 C197.53528567 259.22537561 197.56427456 247.03886671 197.57876015 234.852314 C197.58257994 231.68995407 197.5864206 228.52759418 197.59033203 225.36523438 C197.59178325 224.18624994 197.59178325 224.18624994 197.59326379 222.98344764 C197.60986668 210.24913032 197.66054446 197.51518861 197.72549339 184.78103533 C197.79162839 171.70778552 197.82765699 158.63472662 197.83404863 145.56130862 C197.83837939 138.22068156 197.85588285 130.88060231 197.90697098 123.54013824 C197.95491543 116.63542068 197.96204117 109.73170426 197.94144821 102.82685471 C197.94045478 100.29159392 197.95317572 97.75628541 197.9805603 95.22117233 C198.01584906 91.76094317 198.00186863 88.30428424 197.97549438 84.84405518 C197.99743288 83.83928108 198.01937137 82.83450697 198.04197466 81.79928517 C197.9671983 77.73971848 197.85626134 75.06999944 195.26671672 71.83405828 C185.47101771 63.039964 171.76449478 60.9772766 159.22021484 58.45117188 C157.75423419 58.15326861 156.29084025 57.84230254 154.83056641 57.51757812 C129.72483252 52.09792764 103.56447271 51.60833226 78 51.625 C76.83305603 51.62336853 75.66611206 51.62173706 74.46380615 51.62005615 C54.36239149 51.62323995 34.43844267 52.83762626 14.5 55.4375 Z " fill="#B2DEEF" transform="translate(173,198)"/>
<path d="M0 0 C0.79277344 0.20238281 1.58554687 0.40476562 2.40234375 0.61328125 C11.11614665 2.89091945 18.52537283 5.52537283 25 12 C25.5805114 18.15342087 25.5805114 18.15342087 23.5 21.1875 C6.65272989 33.40177083 -19.76104551 36.31211506 -40 38 C-41.55847656 38.13317627 -41.55847656 38.13317627 -43.1484375 38.26904297 C-65.39910454 40.08949627 -87.58645176 40.3300619 -109.90087891 40.0267334 C-111.75546792 40.00311424 -113.61015804 39.98774682 -115.46484375 39.97363281 C-189.75178596 39.27326827 -189.75178596 39.27326827 -212 20 C-213.25 16.75 -213.25 16.75 -213 13 C-205.4476789 2.11168431 -188.16933358 -0.61477923 -176 -3 C-165.79079101 -4.78645932 -155.48830344 -6.00453552 -145.1875 -7.125 C-144.1514563 -7.23835693 -144.1514563 -7.23835693 -143.09448242 -7.35400391 C-96.39035955 -12.13282974 -45.68015131 -11.95162867 0 0 Z " fill="#03B4EE" transform="translate(344,259)"/>
<path d="M0 0 C3.03009922 0.65346685 5.58312608 1.66888019 8.359375 3.0390625 C40.71430328 18.6388145 75.73637552 24.24515743 111.5 24.1875 C112.19865173 24.18689575 112.89730347 24.1862915 113.61712646 24.18566895 C143.45319996 24.11602398 175.62174501 20.54025335 203 8 C205.14363391 7.11962544 207.28948155 6.24462201 209.4375 5.375 C212.38843807 4.17856525 214.97818407 3.01403139 217.66015625 1.2890625 C218.43230469 0.86367187 219.20445312 0.43828125 220 0 C220.99 0.33 221.98 0.66 223 1 C219.49622702 6.70985227 219.49622702 6.70985227 216.39453125 8.5234375 C212.61641887 12.43097951 213.33406342 16.64194056 213.375 21.875 C213.375 34.83344072 213.375 34.83344072 208.484375 40.87109375 C195.6368476 52.47437863 177.93812115 56.28293247 161.375 59.125 C159.99163452 59.36319458 159.99163452 59.36319458 158.58032227 59.60620117 C142.03848155 62.2817767 125.55452143 63.38290362 108.8125 63.3125 C107.92601776 63.31100952 107.03953552 63.30951904 106.12619019 63.3079834 C91.57276551 63.26422598 77.35939784 62.55550917 63 60 C62.17612793 59.85546387 61.35225586 59.71092773 60.50341797 59.56201172 C44.84577707 56.70163346 23.60943716 52.25843817 12.8125 39.6875 C10.20548042 35.82191925 9.87890774 33.97626824 9.90234375 29.3359375 C9.90556641 28.21445313 9.90878906 27.09296875 9.91210938 25.9375 C9.92048828 24.761875 9.92886719 23.58625 9.9375 22.375 C9.94201172 21.19164062 9.94652344 20.00828125 9.95117188 18.7890625 C9.96298533 15.85932493 9.97945742 12.92968728 10 10 C9.39542969 9.89429688 8.79085937 9.78859375 8.16796875 9.6796875 C4.63763557 8.57288034 3.1419401 5.89451365 1 3 C0.67 2.01 0.34 1.02 0 0 Z " fill="#61507C" transform="translate(139,145)"/>
<path d="M0 0 C0.33 0 0.66 0 1 0 C1 12.54 1 25.08 1 38 C1.66 38 2.32 38 3 38 C3 38.66 3 39.32 3 40 C3.71671875 40.11730469 4.4334375 40.23460937 5.171875 40.35546875 C8.11470364 41.02614102 10.52400337 42.02522381 13.25 43.3125 C15.16553091 44.21075932 17.08237016 45.10623031 19 46 C19.64203369 46.31283936 20.28406738 46.62567871 20.94555664 46.94799805 C27.10033246 49.84619803 33.34346488 51.57152067 39.9375 53.1875 C41.98873957 53.69999197 44.03954502 54.21422567 46.08984375 54.73046875 C47.43357056 55.06147583 47.43357056 55.06147583 48.80444336 55.39916992 C51 56 51 56 53 57 C55.11771292 57.35077211 57.2431512 57.65534831 59.37109375 57.9375 C60.66853516 58.11023438 61.96597656 58.28296875 63.30273438 58.4609375 C64.32306763 58.59387207 64.32306763 58.59387207 65.36401367 58.72949219 C67.39888273 58.99496198 69.43286488 59.2665171 71.46679688 59.5390625 C75.30834123 60.04983355 79.15310579 60.5310631 83 61 C83.90806396 61.11182617 84.81612793 61.22365234 85.75170898 61.33886719 C94.86342509 62.31628818 104.03394265 62.2418287 113.1875 62.25 C114.5168457 62.25200912 114.5168457 62.25200912 115.87304688 62.25405884 C130.11299354 62.24940001 143.95036016 61.46181038 158 59 C158.77150391 58.87189941 159.54300781 58.74379883 160.33789062 58.61181641 C168.17162909 57.30562418 175.88199403 55.63828375 183.546875 53.55078125 C186 53 186 53 190 53 C190 52.34 190 51.68 190 51 C190.95777344 50.731875 191.91554688 50.46375 192.90234375 50.1875 C203.47334995 47.11456425 213.1585302 42.90855486 223 38 C223 40.31 223 42.62 223 45 C213.13868424 50.88340841 203.15902305 55.26278565 192.25 58.875 C191.13906982 59.24359131 190.02813965 59.61218262 188.88354492 59.99194336 C178.45521164 63.34481542 167.86745094 65.83939308 157.0625 67.625 C156.37994141 67.74617188 155.69738281 67.86734375 154.99414062 67.9921875 C140.41440314 70.43319905 125.54993847 70.27514852 110.8125 70.3125 C109.2220134 70.31742462 109.2220134 70.31742462 107.59939575 70.32244873 C89.88811319 70.3401759 72.16157289 69.92294715 55.03125 64.875 C51.87702017 63.96450067 49.26482521 63.84074023 46 64 C46 64.66 46 65.32 46 66 C67.15404569 70.16055808 87.68048026 73.22264227 109.3125 73.1875 C110.00698242 73.18689575 110.70146484 73.1862915 111.41699219 73.18566895 C138.40799214 73.12247622 165.27201836 70.48965837 191 62 C192.29550781 61.59974609 192.29550781 61.59974609 193.6171875 61.19140625 C203.73272476 58.00555199 213.39055318 53.44531496 223 49 C223 51.31 223 53.62 223 56 C205.55702297 66.12123359 186.50056794 72.67384152 166.8125 76.875 C165.93762939 77.06578125 165.06275879 77.2565625 164.16137695 77.453125 C146.90613206 80.8926466 129.28744346 81.3791076 111.75 81.3125 C110.77130951 81.31100952 109.79261902 81.30951904 108.78427124 81.3079834 C93.6765955 81.26674722 78.8981845 80.72914934 64 78 C63.19256348 77.85546387 62.38512695 77.71092773 61.55322266 77.56201172 C40.46772834 73.65151647 20.71892916 66.37679769 2 56 C1.67 60.62 1.34 65.24 1 70 C0.67 70 0.34 70 0 70 C0 46.9 0 23.8 0 0 Z " fill="#695784" transform="translate(138,74)"/>
<path d="M0 0 C2 3 2 3 1.875 5.4375 C0.47328126 9.54253344 -2.0735297 11.46854649 -5.78515625 13.59765625 C-21.64628904 20.68695875 -37.44457237 21.27607596 -54.5625 21.375 C-55.33820343 21.3830365 -56.11390686 21.391073 -56.91311646 21.39935303 C-73.68024824 21.53083217 -97.01775666 21.07488225 -110 9 C-111.0625 6 -111.0625 6 -111 3 C-109.1875 0.625 -109.1875 0.625 -107 -1 C-106.34 -1 -105.68 -1 -105 -1 C-105 -1.66 -105 -2.32 -105 -3 C-77.97639832 -14.2789185 -24.83121454 -19.31989619 0 0 Z " fill="#61507C" transform="translate(305,72)"/>
<path d="M0 0 C-2.68571218 8.30129218 -8.64729388 12.88015038 -16 17 C-19.27754284 18.50685793 -22.61181856 19.76692413 -26 21 C-26.62132812 21.26554687 -27.24265625 21.53109375 -27.8828125 21.8046875 C-41.97395615 27.72174782 -57.8427172 28.16951811 -72.875 28.125 C-74.17308594 28.12886719 -75.47117187 28.13273437 -76.80859375 28.13671875 C-87.52476791 28.12590525 -97.79814108 27.69195037 -108.1875 24.9375 C-109.39744629 24.61749023 -109.39744629 24.61749023 -110.63183594 24.29101562 C-121.34167953 21.27427663 -136.00358544 15.90713133 -142.77734375 6.54296875 C-143.16019531 5.76566406 -143.54304687 4.98835937 -143.9375 4.1875 C-144.33839844 3.39730469 -144.73929688 2.60710937 -145.15234375 1.79296875 C-145.43207031 1.20128906 -145.71179688 0.60960937 -146 0 C-144.48986328 0.38091797 -144.48986328 0.38091797 -142.94921875 0.76953125 C-135.05162734 2.71874424 -127.16219155 4.41915224 -119.125 5.6875 C-118.37822998 5.80649658 -117.63145996 5.92549316 -116.86206055 6.0480957 C-104.43147697 7.93630285 -92.11251266 8.24029719 -79.5625 8.25 C-78.20581207 8.25151062 -78.20581207 8.25151062 -76.82171631 8.25305176 C-53.34371917 8.23544701 -29.75400868 6.63860521 -7.140625 -0.14453125 C-4.13353702 -0.96362611 -2.83778701 -1.1351148 0 0 Z " fill="#8DACB8" transform="translate(326,199)"/>
<path d="M0 0 C0.33 0 0.66 0 1 0 C1 2.64 1 5.28 1 8 C-16.00254322 17.8202093 -33.96192323 24.62693054 -53.23144531 28.44873047 C-55.0574393 28.81231904 -56.87997422 29.19379816 -58.69824219 29.59423828 C-91.81041779 36.75157139 -130.95607791 36.32198082 -164 29 C-164.77746582 28.82919922 -165.55493164 28.65839844 -166.35595703 28.48242188 C-170.63450715 27.50457712 -174.81153793 26.31696403 -179 25 C-180.64548828 24.52240234 -180.64548828 24.52240234 -182.32421875 24.03515625 C-195.71625312 20.08886447 -207.84332319 14.77612829 -220 8 C-220 5.69 -220 3.38 -220 1 C-219.67 1.66 -219.34 2.32 -219 3 C-217.22445679 3.77043342 -217.22445679 3.77043342 -215.0625 4.375 C-210.7474575 5.73115621 -206.58761132 7.32980094 -202.3984375 9.03125 C-199.68974444 10.12531495 -196.96696177 11.16831997 -194.22436523 12.17407227 C-192.68400499 12.74602251 -191.14911232 13.33283467 -189.61889648 13.93139648 C-182.83243307 16.52456714 -176.13704834 18.24378138 -169 19.5625 C-167.87190918 19.77156982 -166.74381836 19.98063965 -165.58154297 20.19604492 C-131.75754505 26.25795345 -98.01041626 26.8931191 -64 22 C-63.22398437 21.89316895 -62.44796875 21.78633789 -61.6484375 21.67626953 C-41.90596098 18.8618575 -22.39032751 12.41629172 -4.6953125 3.296875 C-2 2 -2 2 0 2 C0 1.34 0 0.68 0 0 Z " fill="#685784" transform="translate(360,100)"/>
<path d="M0 0 C0.99 0.495 0.99 0.495 2 1 C2 1.66 2 2.32 2 3 C2.85207031 3.27070313 3.70414063 3.54140625 4.58203125 3.8203125 C8.04034811 5.01392586 11.33957834 6.40145637 14.6875 7.875 C58.85539741 27.0728283 111.97555251 30.18650971 159 21 C161.30714473 20.5747229 163.61443943 20.15025875 165.921875 19.7265625 C179.2075181 17.23787219 179.2075181 17.23787219 192 13 C193.27287289 12.53006882 194.54763825 12.06523275 195.82421875 11.60546875 C204.42805435 8.4582068 212.7432957 4.98697023 221 1 C221 3.31 221 5.62 221 8 C196.82613395 21.46316797 171.53683808 28.93002419 144 32 C142.80201782 32.14139404 142.80201782 32.14139404 141.57983398 32.28564453 C131.66291614 33.29073148 121.69783195 33.22181615 111.74047852 33.24023438 C108.60079864 33.24988231 105.46179112 33.28095936 102.32226562 33.3125 C83.78400101 33.4112431 66.21560012 31.04518438 48.1875 26.8125 C46.99447266 26.53986328 45.80144531 26.26722656 44.57226562 25.98632812 C41.71299938 25.3317973 38.85571725 24.66981145 36 24 C36 23.34 36 22.68 36 22 C34.845 21.896875 33.69 21.79375 32.5 21.6875 C25.11278641 21.02792736 18.27525527 17.29984392 11.75 14 C11.05648437 13.65710938 10.36296875 13.31421875 9.6484375 12.9609375 C2.40521528 9.32545048 2.40521528 9.32545048 0 7 C-0.25 3.3125 -0.25 3.3125 0 0 Z " fill="#685784" transform="translate(140,133)"/>
<path d="M0 0 C1.65 0.33 3.3 0.66 5 1 C5.06942354 14.24730252 5.12277239 27.49456197 5.15543652 40.74200916 C5.1711114 46.89293136 5.19238305 53.04372937 5.22631836 59.19458008 C5.2588466 65.12733371 5.27683927 71.05996767 5.28463173 76.99280357 C5.29018699 79.25949679 5.30103463 81.52618325 5.31719017 83.7928257 C5.33887734 86.96074348 5.34197055 90.12816286 5.34057617 93.29614258 C5.351362 94.23913208 5.36214783 95.18212158 5.3732605 96.15368652 C5.36707451 97.44723808 5.36707451 97.44723808 5.36076355 98.766922 C5.36352893 99.51633969 5.36629431 100.26575739 5.36914349 101.03788471 C4.89392021 103.56384791 4.01895338 104.45279656 2 106 C-0.5625 106.3125 -0.5625 106.3125 -3 106 C-5 104 -5 104 -5.24291992 101.14941406 C-5.23881104 99.95026367 -5.23470215 98.75111328 -5.23046875 97.515625 C-5.23001053 96.86358093 -5.22955231 96.21153687 -5.2290802 95.53973389 C-5.22605363 94.15098261 -5.21815526 92.76223486 -5.20581055 91.37353516 C-5.18792833 89.29967475 -5.1852985 87.22627202 -5.18554688 85.15234375 C-5.16266478 78.84993393 -4.99096692 72.6259173 -4.51855469 66.33959961 C-4.00180976 59.39029516 -3.73200181 52.45303124 -3.53515625 45.48828125 C-3.45677886 42.99543014 -3.37799141 40.5025919 -3.29882812 38.00976562 C-3.17842287 34.13429889 -3.0609691 30.25881844 -2.95043945 26.38305664 C-2.84132731 22.60531488 -2.7204529 18.82809952 -2.59765625 15.05078125 C-2.56736832 13.88525223 -2.53708038 12.71972321 -2.50587463 11.51887512 C-2.45088051 9.90525337 -2.45088051 9.90525337 -2.39477539 8.2590332 C-2.36670303 7.31308792 -2.33863068 6.36714264 -2.30970764 5.39253235 C-2 3 -2 3 0 0 Z " fill="#E6E7F5" transform="translate(355,309)"/>
<path d="M0 0 C0.33 0 0.66 0 1 0 C1.90273746 6.15948074 2.14510288 12.13666107 2.13803101 18.35688782 C2.14085229 19.3743275 2.14367357 20.39176719 2.14658034 21.44003838 C2.15488653 24.83544031 2.15626112 28.23080947 2.15771484 31.6262207 C2.1623857 34.06585277 2.16752971 36.50548398 2.17311096 38.94511414 C2.18437014 44.19098565 2.19286429 49.43685416 2.19923019 54.68273354 C2.20958039 62.97203805 2.23014741 71.26130285 2.25234985 79.55058289 C2.25982806 82.38892447 2.26724191 85.22726622 2.27463722 88.06560802 C2.27648779 88.77476615 2.27833835 89.48392428 2.280245 90.21457205 C2.30114441 98.27496151 2.31998895 106.33535531 2.33789062 114.39575195 C2.33952881 115.13211347 2.34116699 115.86847499 2.34285481 116.6271505 C2.36918517 128.581216 2.38780691 140.53528458 2.40448253 152.48936687 C2.42188656 164.7672558 2.45070756 177.04508394 2.4893719 189.32292432 C2.51279 196.89488635 2.52676807 204.46674933 2.52869953 212.03874787 C2.53105282 217.83238097 2.54888474 223.62588466 2.57256889 229.41946602 C2.57979187 231.79994967 2.58184846 234.18045521 2.57846642 236.56094742 C2.57459799 239.80019251 2.58894064 243.03885128 2.60800171 246.2780304 C2.60247201 247.22879009 2.59694232 248.17954979 2.59124506 249.15912038 C2.6000849 250.02404204 2.60892474 250.8889637 2.61803246 251.7800951 C2.61938898 252.52798449 2.62074551 253.27587389 2.62214315 254.04642659 C3.10039888 256.5190764 4.18385829 257.32518906 6 259 C6 259.66 6 260.32 6 261 C7.32 261 8.64 261 10 261 C10 261.66 10 262.32 10 263 C10.99 263 11.98 263 13 263 C13 263.66 13 264.32 13 265 C7.1265193 263.36088911 3.40658933 261.109884 0 256 C-0.24839699 253.98592502 -0.24839699 253.98592502 -0.24609566 251.63280964 C-0.25007775 250.73508723 -0.25405985 249.83736481 -0.25816262 248.91243869 C-0.25233693 247.92509445 -0.24651125 246.93775021 -0.24050903 245.92048645 C-0.24221788 244.87253377 -0.24392673 243.82458109 -0.24568737 242.74487227 C-0.24899434 239.21632096 -0.23795863 235.68795777 -0.22705078 232.15942383 C-0.22648693 229.63684595 -0.22680272 227.11426775 -0.22793579 224.59169006 C-0.22839194 219.15198668 -0.22270135 213.7123444 -0.21146011 208.27265358 C-0.19521769 200.40775182 -0.1899984 192.54287326 -0.18748413 184.67795654 C-0.18310505 171.9181851 -0.16979017 159.15843921 -0.15087891 146.39868164 C-0.13252562 134.00252409 -0.11836642 121.60637347 -0.10986328 109.21020508 C-0.10933783 108.44632238 -0.10881239 107.68243968 -0.10827102 106.89540903 C-0.10566097 103.06329873 -0.10313355 99.23118839 -0.10064721 95.39907801 C-0.07990807 63.5993666 -0.04452825 31.79968727 0 0 Z " fill="#84CCEB" transform="translate(131,280)"/>
<path d="M0 0 C10.23778652 0.82562795 18.53424106 3.07592388 27 9 C27.99 9.66 28.98 10.32 30 11 C30.37259549 12.96040881 30.37259549 12.96040881 30.36914349 15.41593361 C30.37511663 16.34998232 30.38108978 17.28403104 30.38724393 18.24638426 C30.37413614 19.79597053 30.37413614 19.79597053 30.36076355 21.37686157 C30.36332682 22.4688789 30.3658901 23.56089623 30.36853105 24.686005 C30.37349885 28.36975585 30.35692643 32.05310289 30.34057617 35.73681641 C30.33973055 38.36761973 30.34020377 40.99842377 30.34190369 43.62922668 C30.34347906 49.30578468 30.3340424 54.98223948 30.31719017 60.65877151 C30.29284035 68.86613246 30.28499903 77.07344335 30.2812262 85.28083651 C30.27465539 98.5957813 30.25467719 111.91067105 30.22631836 125.22558594 C30.19879405 138.16210657 30.17755252 151.09861226 30.16479492 164.03515625 C30.16400675 164.83215862 30.16321858 165.62916099 30.16240653 166.45031495 C30.1584915 170.44852062 30.15470036 174.44672638 30.15097082 178.44493222 C30.11985531 211.62999489 30.06700243 244.81499009 30 278 C29.67 278 29.34 278 29 278 C29.00054207 277.44366233 29.00108415 276.88732466 29.00164264 276.31412828 C29.03287828 243.34608949 29.02772624 210.37828115 28.97527504 177.41027262 C28.96900965 173.45238916 28.9630485 169.4945053 28.95727539 165.53662109 C28.95612095 164.74867266 28.95496651 163.96072422 28.95377708 163.14889856 C28.93580642 150.38798606 28.94248597 137.62719935 28.95826416 124.86628906 C28.97390399 111.7738522 28.96307959 98.68163041 28.92765242 85.58923113 C28.90662413 77.50940375 28.90627525 69.43011745 28.93231983 61.35030241 C28.95007565 55.15618211 28.9310235 48.96267412 28.89815521 42.76862717 C28.89044892 40.22653959 28.89474245 37.68438355 28.91181374 35.14234161 C28.93331752 31.67523312 28.91195917 28.21095269 28.87974548 24.74398804 C28.89624443 23.73425474 28.91274337 22.72452143 28.92974228 21.68419015 C28.86444375 16.51297738 28.86444375 16.51297738 26.50605881 12.06253171 C22.71490639 8.70115576 18.83726641 6.82643057 14 5.25 C12.845 4.86328125 11.69 4.4765625 10.5 4.078125 C7.01129744 3.00348001 3.5145306 1.98622032 0 1 C0 0.67 0 0.34 0 0 Z " fill="#A9E3FD" transform="translate(341,258)"/>
<path d="M0 0 C1.65 0.33 3.3 0.66 5 1 C5.06942354 14.24730252 5.12277239 27.49456197 5.15543652 40.74200916 C5.1711114 46.89293136 5.19238305 53.04372937 5.22631836 59.19458008 C5.2588466 65.12733371 5.27683927 71.05996767 5.28463173 76.99280357 C5.29018699 79.25949679 5.30103463 81.52618325 5.31719017 83.7928257 C5.33887734 86.96074348 5.34197055 90.12816286 5.34057617 93.29614258 C5.351362 94.23913208 5.36214783 95.18212158 5.3732605 96.15368652 C5.36707451 97.44723808 5.36707451 97.44723808 5.36076355 98.766922 C5.36352893 99.51633969 5.36629431 100.26575739 5.36914349 101.03788471 C4.89392021 103.56384791 4.01895338 104.45279656 2 106 C-0.5625 106.3125 -0.5625 106.3125 -3 106 C-5 104 -5 104 -5.24291992 101.14941406 C-5.23881104 99.95026367 -5.23470215 98.75111328 -5.23046875 97.515625 C-5.23001053 96.86358093 -5.22955231 96.21153687 -5.2290802 95.53973389 C-5.22605363 94.15098261 -5.21815526 92.76223486 -5.20581055 91.37353516 C-5.18792833 89.29967475 -5.1852985 87.22627202 -5.18554688 85.15234375 C-5.16266478 78.84993393 -4.99096692 72.6259173 -4.51855469 66.33959961 C-4.00180976 59.39029516 -3.73200181 52.45303124 -3.53515625 45.48828125 C-3.45677886 42.99543014 -3.37799141 40.5025919 -3.29882812 38.00976562 C-3.17842287 34.13429889 -3.0609691 30.25881844 -2.95043945 26.38305664 C-2.84132731 22.60531488 -2.7204529 18.82809952 -2.59765625 15.05078125 C-2.56736832 13.88525223 -2.53708038 12.71972321 -2.50587463 11.51887512 C-2.45088051 9.90525337 -2.45088051 9.90525337 -2.39477539 8.2590332 C-2.36670303 7.31308792 -2.33863068 6.36714264 -2.30970764 5.39253235 C-2 3 -2 3 0 0 Z M1 2 C-0.40739423 4.81478846 -0.18251214 7.21893433 -0.24609375 10.3671875 C-0.27785096 11.72501965 -0.30975926 13.08284827 -0.34179688 14.44067383 C-0.35718506 15.16267975 -0.37257324 15.88468567 -0.38842773 16.62857056 C-0.68860218 30.36995185 -1.23892417 44.08921406 -2 57.8125 C-2.04188446 58.59212097 -2.08376892 59.37174194 -2.12692261 60.17498779 C-2.24696712 62.39426995 -2.37239651 64.61317221 -2.5 66.83203125 C-2.5721875 68.09764893 -2.644375 69.3632666 -2.71875 70.66723633 C-3 74 -3 74 -3.52294922 76.59155273 C-4.06792284 79.34291651 -4.12956179 81.89915389 -4.1328125 84.703125 C-4.13410156 85.7653125 -4.13539063 86.8275 -4.13671875 87.921875 C-4.13285156 89.02015625 -4.12898438 90.1184375 -4.125 91.25 C-4.12886719 92.36375 -4.13273437 93.4775 -4.13671875 94.625 C-4.13542969 95.68203125 -4.13414062 96.7390625 -4.1328125 97.828125 C-4.13168457 98.7965332 -4.13055664 99.76494141 -4.12939453 100.76269531 C-4.25050039 102.97119956 -4.25050039 102.97119956 -3 104 C-1.00041636 104.04080783 1.00045254 104.04254356 3 104 C4.23417156 99.20822947 4.13359366 94.53019058 4.11352539 89.61987305 C4.11367142 88.68280014 4.11381744 87.74572723 4.1139679 86.78025818 C4.11327264 83.69072128 4.10549832 80.60124508 4.09765625 77.51171875 C4.0957907 75.36652153 4.09436744 73.22132389 4.09336853 71.0761261 C4.08955417 65.43564676 4.07973309 59.79519326 4.06866455 54.15472412 C4.0584272 48.39677276 4.05386593 42.63881722 4.04882812 36.88085938 C4.03810987 25.58722825 4.02104641 14.29361627 4 3 C3.01 2.67 2.02 2.34 1 2 Z " fill="#C9EAFC" transform="translate(355,309)"/>
<path d="M0 0 C0.33 0 0.66 0 1 0 C1.33 14.85 1.66 29.7 2 45 C3.32 45.33 4.64 45.66 6 46 C8.43489502 47.22316323 10.84311871 48.47439947 13.25 49.75 C21.23341356 53.88294035 29.3554426 56.60895221 38 59 C38 59.66 38 60.32 38 61 C38.94875 60.979375 39.8975 60.95875 40.875 60.9375 C44 61 44 61 46 62 C45.67 63.32 45.34 64.64 45 66 C38.73621672 65.40468175 33.25291701 63.50019512 27.375 61.3125 C26.40675293 60.95671875 25.43850586 60.6009375 24.44091797 60.234375 C17.11350861 57.50448388 10.00286118 54.48821764 3 51 C1.81968762 54.84841348 1.66764649 58.758279 1.4375 62.75 C1.39431641 63.44738281 1.35113281 64.14476562 1.30664062 64.86328125 C1.20110404 66.57531922 1.1001009 68.28763561 1 70 C0.67 70 0.34 70 0 70 C0 46.9 0 23.8 0 0 Z " fill="#625476" transform="translate(138,74)"/>
<path d="M0 0 C13.72473024 -1.4846463 28.46458854 4.94500922 40 12 C42.1519437 15.22791555 42.20086443 16.28400809 42 20 C38.3656352 18.64410236 34.96704109 16.97872897 31.53149414 15.18237305 C23.8638658 11.19144668 16.35069655 8.30479225 8 6 C4.98861444 5.0311559 1.99603717 4.01560582 -1 3 C-0.67 2.01 -0.34 1.02 0 0 Z " fill="#E4DFF4" transform="translate(304,56)"/>
<path d="M0 0 C1.2031485 -0.00111786 2.406297 -0.00223572 3.64590454 -0.00338745 C26.94132243 0.00719412 51.11535167 0.46158762 74 5.375 C74 5.705 74 6.035 74 6.375 C71.14559413 6.23303484 68.29153804 6.08654174 65.4375 5.9375 C64.63763672 5.89818359 63.83777344 5.85886719 63.01367188 5.81835938 C62.22412109 5.77646484 61.43457031 5.73457031 60.62109375 5.69140625 C59.9036499 5.65474854 59.18620605 5.61809082 58.44702148 5.58032227 C56.50286785 5.41719414 54.56649564 5.16188901 52.63671875 4.875 C49.13009221 4.39288593 45.72745112 4.17265971 42.19140625 4.05859375 C40.95068359 4.01669922 39.70996094 3.97480469 38.43164062 3.93164062 C37.15482422 3.89232422 35.87800781 3.85300781 34.5625 3.8125 C33.25861328 3.76931641 31.95472656 3.72613281 30.61132812 3.68164062 C27.40764684 3.57602476 24.20389389 3.47391899 21 3.375 C21 2.715 21 2.055 21 1.375 C15.48227011 1.49306894 9.96472709 1.61730419 4.44726562 1.74731445 C2.56937458 1.79068789 0.69144348 1.83236118 -1.18652344 1.87231445 C-3.8822844 1.92995876 -6.57784327 1.99366981 -9.2734375 2.05859375 C-10.11619232 2.07530624 -10.95894714 2.09201874 -11.82723999 2.10923767 C-16.0486661 2.10736144 -16.0486661 2.10736144 -20 3.375 C-22.32416296 3.46086809 -24.65083307 3.48211043 -26.9765625 3.47265625 C-27.66181 3.4712413 -28.3470575 3.46982635 -29.05307007 3.46836853 C-31.24375761 3.46276675 -33.4343433 3.45021406 -35.625 3.4375 C-37.10937352 3.43248522 -38.59374865 3.42792228 -40.078125 3.42382812 C-43.71878315 3.41279677 -47.35938164 3.39553099 -51 3.375 C-51 3.045 -51 2.715 -51 2.375 C-33.97993006 0.67129545 -17.10148656 -0.02258957 0 0 Z " fill="#1FAEDD" transform="translate(251,249.625)"/>
<path d="M0 0 C0.66 0 1.32 0 2 0 C2 23.1 2 46.2 2 70 C1.67 70 1.34 70 1 70 C1 55.48 1 40.96 1 26 C0.34 26 -0.32 26 -1 26 C-1 26.66 -1 27.32 -1 28 C-3.28929053 29.17154293 -5.58118362 30.33738074 -7.875 31.5 C-8.85146484 32.00080078 -8.85146484 32.00080078 -9.84765625 32.51171875 C-14.7734375 35 -14.7734375 35 -17 35 C-16.9375 32.6875 -16.9375 32.6875 -16 30 C-12.8125 28.4375 -12.8125 28.4375 -10.91015625 27.7578125 C-8.67721513 26.95046182 -8.67721513 26.95046182 -5.75 24.8125 C-3 23 -3 23 0 23 C0 15.41 0 7.82 0 0 Z " fill="#726584" transform="translate(361,74)"/>
<path d="M0 0 C0 0.66 0 1.32 0 2 C0.66 2 1.32 2 2 2 C3.32850242 8.40096618 3.32850242 8.40096618 1.9375 10.9375 C-0.86718329 12.47555213 -2.85514075 12.39310741 -6 12 C-7.875 10.875 -7.875 10.875 -9 9 C-9.39365568 5.85075452 -9.52854531 3.88090884 -7.875 1.125 C-5.21965017 -0.4682099 -3.03210482 -0.20214032 0 0 Z " fill="#C0EAFD" transform="translate(358,425)"/>
<path d="M0 0 C0 0.33 0 0.66 0 1 C-7.58677428 2.43120467 -15.06420457 3.31970807 -22.7734375 3.75390625 C-25.93954826 3.93786322 -25.93954826 3.93786322 -28.78051758 4.51367188 C-32.16594064 5.02506664 -35.31611399 5.07660925 -38.73828125 5.02734375 C-44.47355191 4.98738404 -50.18601338 5.06047996 -55.91796875 5.25390625 C-57.05505783 5.2908107 -57.05505783 5.2908107 -58.21511841 5.32846069 C-61.32287368 5.43030258 -64.43048126 5.53489913 -67.5378418 5.64819336 C-76.77877413 5.98039318 -85.78918975 6.07892598 -95 5 C-95 4.67 -95 4.34 -95 4 C-93.74380859 3.98018066 -92.48761719 3.96036133 -91.19335938 3.93994141 C-60.35978259 3.47300645 -60.35978259 3.47300645 -29.5625 2 C-28.28761719 1.9170166 -27.01273437 1.8340332 -25.69921875 1.74853516 C-20.92800167 1.41640311 -16.17701929 1.05966155 -11.43359375 0.44140625 C-7.54920613 -0.05795189 -3.9072952 -0.06977313 0 0 Z " fill="#36C3F5" transform="translate(320,295)"/>
<path d="M0 0 C9.11216224 -0.82837839 19.4259251 2.9566857 27 8 C29.5 10.75 29.5 10.75 31 13 C30.34 14.32 29.68 15.64 29 17 C28.54625 16.525625 28.0925 16.05125 27.625 15.5625 C26.06741796 13.90972192 26.06741796 13.90972192 24 13 C24 12.34 24 11.68 24 11 C23.28457031 10.72027344 22.56914062 10.44054687 21.83203125 10.15234375 C19.0757712 9.03083104 16.38592858 7.81603918 13.6875 6.5625 C9.18273072 4.49934009 4.6629914 2.67163843 0 1 C0 0.67 0 0.34 0 0 Z " fill="#776996" transform="translate(320,57)"/>
<path d="M0 0 C0.99 0.33 1.98 0.66 3 1 C-0.50679117 6.7147708 -0.50679117 6.7147708 -3.59375 8.5 C-7.43200406 12.48779643 -6.78204647 16.91724846 -6.8125 22.25 C-6.83763672 23.28125 -6.86277344 24.3125 -6.88867188 25.375 C-6.94751562 27.91704989 -6.98381507 30.45737916 -7 33 C-7.33 33 -7.66 33 -8 33 C-8 26.07 -8 19.14 -8 12 C-8.66 12 -9.32 12 -10 12 C-9.67 11.01 -9.34 10.02 -9 9 C-8.34 9 -7.68 9 -7 9 C-6.95875 8.2575 -6.9175 7.515 -6.875 6.75 C-5.63175128 2.84264687 -3.55635005 1.84930203 0 0 Z " fill="#71668B" transform="translate(359,145)"/>
<path d="M0 0 C0 0.33 0 0.66 0 1 C-0.73412109 1.07516846 -1.46824219 1.15033691 -2.22460938 1.2277832 C-21.04117465 3.14866713 -21.04117465 3.14866713 -39.66796875 6.3515625 C-43.43935489 7.08550166 -47.18401715 7.55792986 -51 8 C-51 7.34 -51 6.68 -51 6 C-50.00097656 5.79503906 -49.00195312 5.59007812 -47.97265625 5.37890625 C-46.68230469 5.10949219 -45.39195312 4.84007812 -44.0625 4.5625 C-42.77472656 4.29566406 -41.48695313 4.02882812 -40.16015625 3.75390625 C-37.15361121 3.32818384 -37.15361121 3.32818384 -36 2 C-34.10965162 1.77067843 -32.21158352 1.60444013 -30.3125 1.46484375 C-29.13816406 1.37783203 -27.96382812 1.29082031 -26.75390625 1.20117188 C-25.51511719 1.11416016 -24.27632812 1.02714844 -23 0.9375 C-21.18822266 0.80118164 -21.18822266 0.80118164 -19.33984375 0.66210938 C-12.87415894 0.19424426 -6.48214753 -0.10477609 0 0 Z " fill="#8EDDF9" transform="translate(208,251)"/>
<path d="M0 0 C-0.57443848 0.1858667 -1.14887695 0.3717334 -1.74072266 0.56323242 C-4.37363157 1.4239809 -6.99913244 2.30551528 -9.625 3.1875 C-10.52863281 3.47947266 -11.43226563 3.77144531 -12.36328125 4.07226562 C-17.88793553 5.94742201 -21.87785351 7.82431914 -26 12 C-26.95547581 14.67108098 -26.95547581 14.67108098 -27 17 C-26.01 17.33 -25.02 17.66 -24 18 C-22.8125 20.0625 -22.8125 20.0625 -22 22 C-26.57995227 20.55369928 -26.57995227 20.55369928 -28.375 18.1875 C-29.23314155 15.18400456 -29.18622704 13.93067857 -28 11 C-22.28479382 3.82276433 -9.0376199 -2.48865392 0 0 Z " fill="#26B0DD" transform="translate(160,260)"/>
<path d="M0 0 C4.14298667 0.59834725 7.18194377 2.00664285 10.8125 4.0625 C11.78832031 4.61035156 12.76414062 5.15820312 13.76953125 5.72265625 C14.50558594 6.14417969 15.24164063 6.56570312 16 7 C15.38125 7.12375 14.7625 7.2475 14.125 7.375 C11.80879168 7.87197356 11.80879168 7.87197356 10 10 C5.545 8.02 5.545 8.02 1 6 C1.33 4.68 1.66 3.36 2 2 C1.34 1.34 0.68 0.68 0 0 Z " fill="#675983" transform="translate(336,55)"/>
<path d="M0 0 C1.58294782 -0.05437607 3.16644256 -0.09296271 4.75 -0.125 C5.63171875 -0.14820313 6.5134375 -0.17140625 7.421875 -0.1953125 C10.1135858 0.00860498 11.69904974 0.63448279 14 2 C13.01 2.495 13.01 2.495 12 3 C12 3.66 12 4.32 12 5 C10.58376784 5.05447047 9.16691809 5.09300508 7.75 5.125 C6.96109375 5.14820313 6.1721875 5.17140625 5.359375 5.1953125 C2.79268059 4.9828378 1.2083933 4.28654105 -1 3 C-0.67 2.01 -0.34 1.02 0 0 Z " fill="#E9E7F9" transform="translate(304,56)"/>
<path d="M0 0 C2.875 -0.125 2.875 -0.125 6 0 C8 2 8 2 8.1875 4.5625 C8 7 8 7 7 8 C4 8.125 4 8.125 1 8 C0 7 0 7 -0.0625 3.4375 C-0.041875 2.303125 -0.02125 1.16875 0 0 Z " fill="#E6E7F5" transform="translate(351,427)"/>
<path d="M0 0 C10.21196291 0.8235454 18.56569836 3.03944605 27 9 C26.67 9.99 26.34 10.98 26 12 C25.175 11.278125 24.35 10.55625 23.5 9.8125 C18.98359145 6.52783924 13.90365183 5.21011639 8.59960938 3.70043945 C5.32100578 2.76263716 2.86436993 1.90957995 0 0 Z " fill="#90DFF9" transform="translate(341,258)"/>
<path d="M0 0 C-7.47226544 4.0495951 -16.07990306 4.27761406 -24.41015625 4.75390625 C-26.92805444 4.71570575 -26.92805444 4.71570575 -28 6 C-30.67058851 6.14115161 -33.32432238 6.04247107 -36 6 C-36 5.67 -36 5.34 -36 5 C-8.08129371 -0.37587413 -8.08129371 -0.37587413 0 0 Z " fill="#21AFDD" transform="translate(196,253)"/>
<path d="M0 0 C0.33 0 0.66 0 1 0 C1.0093457 0.7113208 1.01869141 1.4226416 1.02832031 2.15551758 C1.08196888 5.3752206 1.16562635 8.59346183 1.25 11.8125 C1.26417969 12.93205078 1.27835938 14.05160156 1.29296875 15.20507812 C1.32519531 16.27822266 1.35742188 17.35136719 1.390625 18.45703125 C1.41157227 19.44678955 1.43251953 20.43654785 1.45410156 21.45629883 C1.77483639 24.15702543 1.77483639 24.15702543 4.03808594 25.84643555 C4.68551758 26.22711182 5.33294922 26.60778809 6 27 C5.34 27.33 4.68 27.66 4 28 C3.01 27.67 2.02 27.34 1 27 C1 30.63 1 34.26 1 38 C0.67 38 0.34 38 0 38 C0 25.46 0 12.92 0 0 Z " fill="#47395E" transform="translate(139,74)"/>
<path d="M0 0 C0.5775 0.2475 1.155 0.495 1.75 0.75 C1.34316505 3.10964273 0.85185661 4.60934088 -0.5625 6.5625 C-1.119375 6.954375 -1.67625 7.34625 -2.25 7.75 C-4.3125 7.375 -4.3125 7.375 -6.25 6.75 C-7.24 7.245 -7.24 7.245 -8.25 7.75 C-6.64613593 4.0076505 -4.56199942 -0.50688882 0 0 Z " fill="#675882" transform="translate(149.25,63.25)"/>
<path d="M0 0 C3.96 0 7.92 0 12 0 C12 0.66 12 1.32 12 2 C15.63 2 19.26 2 23 2 C23 2.33 23 2.66 23 3 C16.73 3 10.46 3 4 3 C4 2.34 4 1.68 4 1 C2.68 0.67 1.36 0.34 0 0 Z " fill="#24B6E7" transform="translate(268,250)"/>
<path d="M0 0 C0.61875 0.721875 1.2375 1.44375 1.875 2.1875 C6.92746698 7.25436148 14.23170613 10.04075704 21 12 C15.80080558 13.85685515 11.72445066 11.23202393 7 9 C4.64001067 7.80818174 3.05223026 6.73650253 1 5 C0.125 2.25 0.125 2.25 0 0 Z " fill="#67D1FA" transform="translate(131,276)"/>
<path d="M0 0 C1.65 0.33 3.3 0.66 5 1 C4.67 2.32 4.34 3.64 4 5 C3.01 4.01 2.02 3.02 1 2 C-0.15570704 5.46712111 -0.32835293 8.5414956 -0.5625 12.1875 C-0.64628906 13.45980469 -0.73007812 14.73210937 -0.81640625 16.04296875 C-0.87699219 17.01878906 -0.93757813 17.99460937 -1 19 C-1.33 19 -1.66 19 -2 19 C-2.05394705 16.39555652 -2.09364469 13.79223002 -2.125 11.1875 C-2.14175781 10.44951172 -2.15851563 9.71152344 -2.17578125 8.95117188 C-2.21074628 5.08753574 -2.19397555 3.29096332 0 0 Z " fill="#ADE4FB" transform="translate(355,309)"/>
<path d="M0 0 C-1.01320312 0.47179687 -1.01320312 0.47179687 -2.046875 0.953125 C-8.82674935 3.94906937 -8.82674935 3.94906937 -14 9 C-14.80765878 12.64721696 -14.80765878 12.64721696 -15 16 C-15.33 16 -15.66 16 -16 16 C-16.60721063 8.83491461 -16.60721063 8.83491461 -14 5.25 C-4.84615385 -1.61538462 -4.84615385 -1.61538462 0 0 Z " fill="#96E3FC" transform="translate(146,263)"/>
<path d="M0 0 C0.66 0.33 1.32 0.66 2 1 C-6.18440292 5.36636881 -6.18440292 5.36636881 -11 6 C-12.093125 6.185625 -13.18625 6.37125 -14.3125 6.5625 C-15.199375 6.706875 -16.08625 6.85125 -17 7 C-17.33 6.34 -17.66 5.68 -18 5 C-16.86820312 4.72285156 -15.73640625 4.44570313 -14.5703125 4.16015625 C-13.08851098 3.79439512 -11.60674182 3.42850289 -10.125 3.0625 C-9.37863281 2.88009766 -8.63226563 2.69769531 -7.86328125 2.50976562 C-3.82960875 1.54790308 -3.82960875 1.54790308 0 0 Z " fill="#37C2F4" transform="translate(354,286)"/>
<path d="M0 0 C0.99 0 1.98 0 3 0 C4.35439668 2.70879335 4.06501451 5.00933268 4 8 C2.68 8 1.36 8 0 8 C0 5.36 0 2.72 0 0 Z " fill="#DDD4ED" transform="translate(343,166)"/>
<path d="M0 0 C6.5508985 0.45759953 12.6753842 1.2100144 19 3 C19 3.33 19 3.66 19 4 C16.58164103 3.91277063 14.16686684 3.80588627 11.75 3.6875 C11.06808594 3.66494141 10.38617188 3.64238281 9.68359375 3.61914062 C5.54848704 3.39833396 3.02085566 2.90407 0 0 Z " fill="#1AAFDD" transform="translate(325,256)"/>
<path d="M0 0 C0.33 0 0.66 0 1 0 C1.5 2.625 1.5 2.625 1 6 C-1.35774702 8.48964895 -3.91892727 10.48597382 -7 12 C-7.99 11.67 -8.98 11.34 -10 11 C-9.52949219 10.62488281 -9.05898437 10.24976563 -8.57421875 9.86328125 C-4.90675044 6.84881972 -2.2531912 4.25602783 0 0 Z " fill="#A2D2E3" transform="translate(162,222)"/>
<path d="M0 0 C0.33 0.66 0.66 1.32 1 2 C-0.28497537 4.56995074 -1.49912373 4.90434463 -4.0625 6.125 C-4.79597656 6.47820312 -5.52945312 6.83140625 -6.28515625 7.1953125 C-6.85105469 7.46085938 -7.41695313 7.72640625 -8 8 C-7.9375 5.6875 -7.9375 5.6875 -7 3 C-3.4375 1.1875 -3.4375 1.1875 0 0 Z " fill="#9CC5DC" transform="translate(333,194)"/>
<path d="M0 0 C3.3 0 6.6 0 10 0 C10 0.33 10 0.66 10 1 C8.02 1.33 6.04 1.66 4 2 C4.99 2.99 5.98 3.98 7 5 C4.69 4.67 2.38 4.34 0 4 C0 2.68 0 1.36 0 0 Z " fill="#CAC3DE" transform="translate(304,56)"/>
<path d="M0 0 C5.13503344 0.64187918 9.9943454 1.68272247 15 3 C15 3.33 15 3.66 15 4 C13.24908981 3.91245449 11.49920449 3.80426627 9.75 3.6875 C8.77546875 3.62949219 7.8009375 3.57148437 6.796875 3.51171875 C3.74658389 2.95363476 2.29288724 2.03630224 0 0 Z " fill="#A0D1E2" transform="translate(158,573)"/>
</svg>
